<svg width="1634" height="300" viewBox="0 0 1634 300" fill="none" xmlns="http://www.w3.org/2000/svg">
<path d="M85.1977 240.6C79.3977 240.6 73.1977 239.6 66.5977 237.6C60.1977 235.6 54.5977 232.9 49.7977 229.5L41.9977 300H0.297657L25.1977 102.9H61.1977L61.7977 114.3C69.7977 109.7 77.5977 106.1 85.1977 103.5C92.9977 100.7 100.298 99.3 107.098 99.3C118.098 99.3 128.198 101.8 137.398 106.8C146.598 111.6 153.898 118.4 159.298 127.2C164.898 136 167.698 146.5 167.698 158.7C167.698 173.1 164.398 186.6 157.798 199.2C151.198 211.6 141.698 221.6 129.298 229.2C117.098 236.8 102.398 240.6 85.1977 240.6ZM83.9977 205.5C92.7977 205.5 100.198 203.6 106.198 199.8C112.398 196 117.098 191 120.298 184.8C123.498 178.6 125.098 172.1 125.098 165.3C125.098 158.7 123.498 153 120.298 148.2C117.098 143.2 112.998 139.4 107.998 136.8C102.998 134 97.6977 132.6 92.0977 132.6C85.2977 132.6 79.0977 134.3 73.4977 137.7C68.0977 140.9 62.9977 145.8 58.1977 152.4L54.2977 184.5C56.8977 190.9 60.5977 196 65.3977 199.8C70.1977 203.6 76.3977 205.5 83.9977 205.5ZM255.989 240.6C248.189 240.6 240.089 239.4 231.689 237C223.289 234.4 215.389 230.5 207.989 225.3C200.789 220.1 194.889 213.4 190.289 205.2C185.889 197 183.689 187.2 183.689 175.8C183.689 167.8 184.989 159.4 187.589 150.6C190.389 141.8 194.789 133.6 200.789 126C206.789 118.2 214.789 111.9 224.789 107.1C234.789 102.3 246.989 99.9 261.389 99.9C273.189 99.9 284.489 102.4 295.289 107.4C306.289 112.2 315.289 119.4 322.289 129C329.489 138.6 333.089 150.5 333.089 164.7C333.089 169.7 332.389 175.6 330.989 182.4C329.589 189 327.189 195.7 323.789 202.5C320.389 209.3 315.789 215.6 309.989 221.4C304.189 227 296.789 231.6 287.789 235.2C278.989 238.8 268.389 240.6 255.989 240.6ZM257.189 206.1C265.789 206.1 272.489 203.9 277.289 199.5C282.089 195.1 285.489 189.8 287.489 183.6C289.489 177.4 290.489 171.7 290.489 166.5C290.489 159.5 289.289 153.9 286.889 149.7C284.689 145.3 281.889 142 278.489 139.8C275.089 137.6 271.689 136.1 268.289 135.3C264.889 134.5 262.089 134.1 259.889 134.1C251.689 134.1 245.089 136.3 240.089 140.7C235.089 144.9 231.489 150.1 229.289 156.3C227.089 162.5 225.989 168.3 225.989 173.7C225.989 182.7 227.789 189.5 231.389 194.1C235.189 198.7 239.489 201.9 244.289 203.7C249.289 205.3 253.589 206.1 257.189 206.1ZM406.062 105.9L406.662 125.4C412.262 117.6 419.662 111.4 428.862 106.8C438.062 102 448.462 99.6 460.062 99.6C472.462 99.6 482.262 103.3 489.462 110.7C496.862 117.9 500.062 127.3 499.062 138.9L487.062 237H445.062L455.262 154.5C455.662 148.7 454.562 144.1 451.962 140.7C449.562 137.1 444.962 135.3 438.162 135.3C428.362 135.3 420.062 139.9 413.262 149.1C406.462 158.1 402.262 169.6 400.662 183.6L394.062 237H352.062L367.962 105.9H406.062ZM586.58 240.6C574.18 240.6 563.08 237.7 553.28 231.9C543.48 226.1 535.78 218.4 530.18 208.8C524.78 199 522.08 188.4 522.08 177C522.08 167.8 523.68 158.7 526.88 149.7C530.28 140.5 535.28 132.1 541.88 124.5C548.68 116.9 556.98 110.8 566.78 106.2C576.58 101.6 587.88 99.3 600.68 99.3C609.28 99.3 617.18 100.7 624.38 103.5C631.58 106.1 637.58 109.4 642.38 113.4L656.18 0.29999H697.88L668.78 237H626.78L628.58 223.2C621.98 228.2 615.38 232.4 608.78 235.8C602.18 239 594.78 240.6 586.58 240.6ZM599.78 205.2C613.18 205.2 624.38 198.6 633.38 185.4L637.28 153.3C635.68 146.9 631.98 141.8 626.18 138C620.38 134.2 613.28 132.3 604.88 132.3C593.08 132.3 583.48 135.8 576.08 142.8C568.88 149.6 565.28 158.9 565.28 170.7C565.28 181.1 568.38 189.5 574.58 195.9C580.98 202.1 589.38 205.2 599.78 205.2ZM836.114 239.7C832.514 239.7 827.414 239.1 820.814 237.9C814.214 236.9 807.214 234.6 799.814 231C792.614 227.4 786.214 221.9 780.614 214.5L800.714 192.6C806.114 198.6 811.014 202.9 815.414 205.5C819.814 208.1 823.714 209.7 827.114 210.3C830.714 210.7 833.614 210.9 835.814 210.9C842.014 210.9 846.014 209.6 847.814 207C849.614 204.4 850.514 202 850.514 199.8C850.514 195.2 847.814 191.9 842.414 189.9C837.214 187.7 831.414 185.4 825.014 183C814.614 179 807.114 173.7 802.514 167.1C798.114 160.5 795.914 153.3 795.914 145.5C795.914 141.5 796.614 137 798.014 132C799.614 126.8 802.214 121.8 805.814 117C809.614 112.2 814.814 108.2 821.414 105C828.214 101.8 836.914 100.2 847.514 100.2C856.514 100.2 865.614 101.3 874.814 103.5C884.014 105.7 892.614 110.3 900.614 117.3L881.714 141C873.114 132.4 863.914 128.1 854.114 128.1C848.514 128.1 844.514 129.3 842.114 131.7C839.914 134.1 838.814 136.8 838.814 139.8C838.814 143 840.314 145.6 843.314 147.6C846.314 149.6 849.914 151.3 854.114 152.7C858.514 154.1 862.814 155.7 867.014 157.5C876.014 161.3 882.914 166.3 887.714 172.5C892.514 178.7 894.314 186.7 893.114 196.5C892.314 204.3 889.614 211.5 885.014 218.1C880.414 224.7 874.014 230 865.814 234C857.814 237.8 847.914 239.7 836.114 239.7ZM1031.49 228.6C1025.49 232.4 1018.29 235.4 1009.89 237.6C1001.69 239.8 993.587 240.9 985.587 240.9C980.187 240.9 973.587 240 965.787 238.2C957.987 236.6 950.287 233.6 942.687 229.2C935.087 224.6 928.687 218.2 923.487 210C918.487 201.6 915.987 190.9 915.987 177.9C915.987 169.3 917.487 160.6 920.487 151.8C923.487 143 927.987 134.9 933.987 127.5C939.987 120.1 947.587 114.2 956.787 109.8C965.987 105.2 976.887 102.9 989.487 102.9C1002.89 102.9 1014.09 104.9 1023.09 108.9C1032.29 112.9 1039.79 117.8 1045.59 123.6L1021.89 149.1C1019.29 146.5 1015.49 143.9 1010.49 141.3C1005.49 138.7 999.387 137.4 992.187 137.4C986.387 137.4 980.887 139 975.687 142.2C970.487 145.4 966.287 149.8 963.087 155.4C959.887 161 958.287 167.5 958.287 174.9C958.287 183.9 961.387 191.5 967.587 197.7C973.787 203.9 982.287 207 993.087 207C1001.09 207 1007.99 205 1013.79 201L1031.49 228.6ZM1106.89 183.6L1100.29 237H1058.29L1087.09 0.29999H1128.19L1113.19 125.1C1118.79 117.5 1126.09 111.4 1135.09 106.8C1144.29 102 1154.69 99.6 1166.29 99.6C1178.69 99.6 1188.49 103.3 1195.69 110.7C1203.09 117.9 1206.29 127.3 1205.29 138.9L1193.29 237H1151.29L1161.19 154.5C1161.59 148.7 1160.59 144.1 1158.19 140.7C1155.79 137.1 1151.19 135.3 1144.39 135.3C1134.59 135.3 1126.29 139.9 1119.49 149.1C1112.69 158.1 1108.49 169.6 1106.89 183.6ZM1300.61 240.6C1292.81 240.6 1284.71 239.4 1276.31 237C1267.91 234.4 1260.01 230.5 1252.61 225.3C1245.41 220.1 1239.51 213.4 1234.91 205.2C1230.51 197 1228.31 187.2 1228.31 175.8C1228.31 167.8 1229.61 159.4 1232.21 150.6C1235.01 141.8 1239.41 133.6 1245.41 126C1251.41 118.2 1259.41 111.9 1269.41 107.1C1279.41 102.3 1291.61 99.9 1306.01 99.9C1317.81 99.9 1329.11 102.4 1339.91 107.4C1350.91 112.2 1359.91 119.4 1366.91 129C1374.11 138.6 1377.71 150.5 1377.71 164.7C1377.71 169.7 1377.01 175.6 1375.61 182.4C1374.21 189 1371.81 195.7 1368.41 202.5C1365.01 209.3 1360.41 215.6 1354.61 221.4C1348.81 227 1341.41 231.6 1332.41 235.2C1323.61 238.8 1313.01 240.6 1300.61 240.6ZM1301.81 206.1C1310.41 206.1 1317.11 203.9 1321.91 199.5C1326.71 195.1 1330.11 189.8 1332.11 183.6C1334.11 177.4 1335.11 171.7 1335.11 166.5C1335.11 159.5 1333.91 153.9 1331.51 149.7C1329.31 145.3 1326.51 142 1323.11 139.8C1319.71 137.6 1316.31 136.1 1312.91 135.3C1309.51 134.5 1306.71 134.1 1304.51 134.1C1296.31 134.1 1289.71 136.3 1284.71 140.7C1279.71 144.9 1276.11 150.1 1273.91 156.3C1271.71 162.5 1270.61 168.3 1270.61 173.7C1270.61 182.7 1272.41 189.5 1276.01 194.1C1279.81 198.7 1284.11 201.9 1288.91 203.7C1293.91 205.3 1298.21 206.1 1301.81 206.1ZM1466.58 240.6C1458.78 240.6 1450.68 239.4 1442.28 237C1433.88 234.4 1425.98 230.5 1418.58 225.3C1411.38 220.1 1405.48 213.4 1400.88 205.2C1396.48 197 1394.28 187.2 1394.28 175.8C1394.28 167.8 1395.58 159.4 1398.18 150.6C1400.98 141.8 1405.38 133.6 1411.38 126C1417.38 118.2 1425.38 111.9 1435.38 107.1C1445.38 102.3 1457.58 99.9 1471.98 99.9C1483.78 99.9 1495.08 102.4 1505.88 107.4C1516.88 112.2 1525.88 119.4 1532.88 129C1540.08 138.6 1543.68 150.5 1543.68 164.7C1543.68 169.7 1542.98 175.6 1541.58 182.4C1540.18 189 1537.78 195.7 1534.38 202.5C1530.98 209.3 1526.38 215.6 1520.58 221.4C1514.78 227 1507.38 231.6 1498.38 235.2C1489.58 238.8 1478.98 240.6 1466.58 240.6ZM1467.78 206.1C1476.38 206.1 1483.08 203.9 1487.88 199.5C1492.68 195.1 1496.08 189.8 1498.08 183.6C1500.08 177.4 1501.08 171.7 1501.08 166.5C1501.08 159.5 1499.88 153.9 1497.48 149.7C1495.28 145.3 1492.48 142 1489.08 139.8C1485.68 137.6 1482.28 136.1 1478.88 135.3C1475.48 134.5 1472.68 134.1 1470.48 134.1C1462.28 134.1 1455.68 136.3 1450.68 140.7C1445.68 144.9 1442.08 150.1 1439.88 156.3C1437.68 162.5 1436.58 168.3 1436.58 173.7C1436.58 182.7 1438.38 189.5 1441.98 194.1C1445.78 198.7 1450.08 201.9 1454.88 203.7C1459.88 205.3 1464.18 206.1 1467.78 206.1ZM1591.46 0.29999H1633.46L1604.66 237H1562.66L1591.46 0.29999Z" fill="black"/>
</svg>
